<svg width="36" height="9" viewBox="0 0 36 9" fill="none" xmlns="http://www.w3.org/2000/svg">
<path d="M6.408 5.52H4.08V7.992H2.874V5.52H0.558V4.422H2.874V1.962H4.08V4.422H6.408V5.52ZM15.0305 5.724L13.9745 2.838C13.9225 2.71 13.8685 2.558 13.8125 2.382C13.7565 2.206 13.7005 2.016 13.6445 1.812C13.5925 2.016 13.5385 2.208 13.4825 2.388C13.4265 2.564 13.3725 2.718 13.3205 2.85L12.2705 5.724H15.0305ZM17.8805 9H16.6325C16.4925 9 16.3785 8.966 16.2905 8.898C16.2025 8.826 16.1365 8.738 16.0925 8.634L15.4445 6.864H11.8505L11.2025 8.634C11.1705 8.726 11.1085 8.81 11.0165 8.886C10.9245 8.962 10.8105 9 10.6745 9H9.41447L12.8285 0.323999H14.4725L17.8805 9ZM26.4825 4.662C26.4825 5.298 26.3765 5.882 26.1645 6.414C25.9525 6.946 25.6545 7.404 25.2705 7.788C24.8865 8.172 24.4245 8.47 23.8845 8.682C23.3445 8.894 22.7445 9 22.0845 9H18.7785V0.323999H22.0845C22.7445 0.323999 23.3445 0.431999 23.8845 0.648C24.4245 0.859999 24.8865 1.158 25.2705 1.542C25.6545 1.922 25.9525 2.378 26.1645 2.91C26.3765 3.442 26.4825 4.026 26.4825 4.662ZM24.8265 4.662C24.8265 4.186 24.7625 3.76 24.6345 3.384C24.5105 3.004 24.3285 2.684 24.0885 2.424C23.8525 2.16 23.5645 1.958 23.2245 1.818C22.8885 1.678 22.5085 1.608 22.0845 1.608H20.3985V7.716H22.0845C22.5085 7.716 22.8885 7.646 23.2245 7.506C23.5645 7.366 23.8525 7.166 24.0885 6.906C24.3285 6.642 24.5105 6.322 24.6345 5.946C24.7625 5.566 24.8265 5.138 24.8265 4.662ZM35.6114 4.662C35.6114 5.298 35.5054 5.882 35.2934 6.414C35.0814 6.946 34.7834 7.404 34.3994 7.788C34.0154 8.172 33.5534 8.47 33.0134 8.682C32.4734 8.894 31.8734 9 31.2134 9H27.9074V0.323999H31.2134C31.8734 0.323999 32.4734 0.431999 33.0134 0.648C33.5534 0.859999 34.0154 1.158 34.3994 1.542C34.7834 1.922 35.0814 2.378 35.2934 2.91C35.5054 3.442 35.6114 4.026 35.6114 4.662ZM33.9554 4.662C33.9554 4.186 33.8914 3.76 33.7634 3.384C33.6394 3.004 33.4574 2.684 33.2174 2.424C32.9814 2.16 32.6934 1.958 32.3534 1.818C32.0174 1.678 31.6374 1.608 31.2134 1.608H29.5274V7.716H31.2134C31.6374 7.716 32.0174 7.646 32.3534 7.506C32.6934 7.366 32.9814 7.166 33.2174 6.906C33.4574 6.642 33.6394 6.322 33.7634 5.946C33.8914 5.566 33.9554 5.138 33.9554 4.662Z" fill="#596FEB"/>
</svg>
