<svg width="30" height="29" viewBox="0 0 30 29" fill="none" xmlns="http://www.w3.org/2000/svg">
<rect x="1.92188" y="1.59375" width="26.1573" height="26" rx="1" stroke="white" stroke-width="2"/>
<path d="M12.0432 16.1821L10.9442 13.0741C10.8789 12.9107 10.8089 12.7194 10.7342 12.5001C10.6642 12.2807 10.5965 12.0427 10.5312 11.7861C10.4659 12.0474 10.3959 12.2901 10.3212 12.5141C10.2512 12.7334 10.1835 12.9247 10.1182 13.0881L9.02619 16.1821H12.0432ZM15.5712 20.0391H13.9402C13.7582 20.0391 13.6089 19.9971 13.4922 19.9131C13.3802 19.8244 13.2962 19.7124 13.2402 19.5771L12.5542 17.6381H8.50819L7.82219 19.5771C7.77552 19.6937 7.69385 19.8011 7.57719 19.8991C7.46052 19.9924 7.31352 20.0391 7.13619 20.0391H5.49119L9.46019 9.88206H11.6092L15.5712 20.0391ZM22.7022 11.5761H19.7342V20.0391H17.6272V11.5761H14.6592V9.88206H22.7022V11.5761Z" fill="white"/>
</svg>
