<?xml version="1.0" encoding="UTF-8"?>
<svg width="20px" height="11px" viewBox="0 0 20 11" version="1.1" xmlns="http://www.w3.org/2000/svg" xmlns:xlink="http://www.w3.org/1999/xlink">
    <!-- Generator: Sketch 61.1 (89650) - https://sketch.com -->
    <title>Book Loan</title>
    <desc>Created with Sketch.</desc>
    <g id="Page-1" stroke="none" stroke-width="1" fill="none" fill-rule="evenodd">
        <g id="r" transform="translate(-72.000000, -66.000000)" fill="#3B3B3B">
            <path d="M90.7781746,67.2928932 C91.1686989,67.6834175 91.1686989,68.3165825 90.7781746,68.7071068 L83.7071068,75.7781746 C83.4901488,75.9951325 83.1983018,76.0915583 82.9147758,76.0674518 C82.6308162,76.0917863 82.338535,75.9953893 82.1213203,75.7781746 L79.2928932,72.9497475 C78.9023689,72.5592232 78.9023689,71.9260582 79.2928932,71.5355339 C79.6834175,71.1450096 80.3165825,71.1450096 80.7071068,71.5355339 L82.914,73.742 L89.363961,67.2928932 C89.7544853,66.9023689 90.3876503,66.9023689 90.7781746,67.2928932 Z M77,74 C77.5522847,74 78,74.4477153 78,75 C78,75.5522847 77.5522847,76 77,76 L73,76 C72.4477153,76 72,75.5522847 72,75 C72,74.4477153 72.4477153,74 73,74 L77,74 Z M77,70 C77.5522847,70 78,70.4477153 78,71 C78,71.5522847 77.5522847,72 77,72 L73,72 C72.4477153,72 72,71.5522847 72,71 C72,70.4477153 72.4477153,70 73,70 L77,70 Z M85,66 C85.5522847,66 86,66.4477153 86,67 C86,67.5522847 85.5522847,68 85,68 L78,68 C77.4477153,68 77,67.5522847 77,67 C77,66.4477153 77.4477153,66 78,66 L85,66 Z M75,66 C75.5522847,66 76,66.4477153 76,67 C76,67.5522847 75.5522847,68 75,68 L73,68 C72.4477153,68 72,67.5522847 72,67 C72,66.4477153 72.4477153,66 73,66 L75,66 Z" id="Book-Loan"></path>
        </g>
    </g>
</svg>