<svg data-name="file (2)" height="24" id="file_2_" viewBox="0 0 24 24" width="24" xmlns="http://www.w3.org/2000/svg">
    <path d="M17.5,24A6.5,6.5,0,1,1,24,17.5,6.508,6.508,0,0,1,17.5,24Zm0-12A5.5,5.5,0,1,0,23,17.5,5.506,5.506,0,0,0,17.5,12Z" data-name="Path 550" fill="#7a7a7a" id="Path_550" />
    <path d="M16.5,20a.505.505,0,0,1-.354-.146l-2-2a.5.5,0,0,1,.707-.707l1.622,1.622,3.148-3.6a.5.5,0,0,1,.753.658l-3.5,4a.5.5,0,0,1-.36.171H16.5Z" data-name="Path 551" fill="#7a7a7a" id="Path_551" />
    <path d="M9.5,21h-7A2.5,2.5,0,0,1,0,18.5V5.5A2.5,2.5,0,0,1,2.5,3h2a.5.5,0,0,1,0,1h-2A1.5,1.5,0,0,0,1,5.5v13A1.5,1.5,0,0,0,2.5,20h7a.5.5,0,0,1,0,1Z" data-name="Path 552" fill="#7a7a7a" id="Path_552" />
    <path d="M16.5,9a.5.5,0,0,1-.5-.5v-3A1.5,1.5,0,0,0,14.5,4h-2a.5.5,0,0,1,0-1h2A2.5,2.5,0,0,1,17,5.5v3A.5.5,0,0,1,16.5,9Z" data-name="Path 553" fill="#7a7a7a" id="Path_553" />
    <path d="M11.5,6h-6A1.5,1.5,0,0,1,4,4.5v-2A.5.5,0,0,1,4.5,2H6.05a2.5,2.5,0,0,1,4.9,0H12.5a.5.5,0,0,1,.5.5v2A1.5,1.5,0,0,1,11.5,6ZM5,3V4.5a.5.5,0,0,0,.5.5h6a.5.5,0,0,0,.5-.5V3H10.5a.5.5,0,0,1-.5-.5,1.5,1.5,0,0,0-3,0,.5.5,0,0,1-.5.5Z" data-name="Path 554" fill="#7a7a7a" id="Path_554" />
    <path d="M13.5,9H3.5a.5.5,0,0,1,0-1h10a.5.5,0,0,1,0,1Z" data-name="Path 555" fill="#7a7a7a" id="Path_555" />
    <path d="M10.5,12h-7a.5.5,0,0,1,0-1h7a.5.5,0,0,1,0,1Z" data-name="Path 556" fill="#7a7a7a" id="Path_556" />
    <path d="M8.5,15h-5a.5.5,0,0,1,0-1h5a.5.5,0,0,1,0,1Z" data-name="Path 557" fill="#7a7a7a" id="Path_557" />
  </svg>