<?xml version="1.0" encoding="UTF-8"?>
<svg width="34px" height="23px" viewBox="0 0 34 23" version="1.1" xmlns="http://www.w3.org/2000/svg" xmlns:xlink="http://www.w3.org/1999/xlink">
    <!-- Generator: Sketch 61.1 (89650) - https://sketch.com -->
    <title>Covius</title>
    <desc>Created with Sketch.</desc>
    <g id="Covius" stroke="none" stroke-width="1" fill="none" fill-rule="evenodd">
        <g id="1-copy-17" transform="translate(-15.000000, -155.000000)" fill="#FFFFFF" fill-rule="nonzero">
            <g id="Covius" transform="translate(15.000000, 155.000000)">
                <path d="M30.7077895,0.126877193 L11.4106667,0.126877193 C9.61108772,0.126877193 8.14694737,1.59101754 8.14694737,3.39059649 L8.14694737,5.23017544 L2.87761404,5.23017544 C2.2962807,5.23017544 1.82498246,5.70133333 1.82498246,6.28280702 C1.82498246,6.8642807 2.2962807,7.3354386 2.87761404,7.3354386 L8.14694737,7.3354386 L8.14694737,8.05515789 L1.05263158,8.05515789 C0.471298246,8.05515789 0,8.52631579 0,9.10778947 C0,9.68926316 0.471298246,10.1604211 1.05263158,10.1604211 L8.14694737,10.1604211 L8.14694737,11.0690526 L2.87761404,11.0690526 C2.2962807,11.0690526 1.82498246,11.5402105 1.82498246,12.1216842 C1.82498246,12.7031579 2.2962807,13.1743158 2.87761404,13.1743158 L8.14694737,13.1743158 L8.14694737,16.0954386 C8.14694737,17.7414737 9.37207018,19.1059649 10.9580351,19.3270175 C11.1813333,20.8676491 12.5101754,22.0551579 14.1117193,22.0551579 C15.7021754,22.0551579 17.024,20.8842105 17.2609123,19.3591579 L24.8574035,19.3591579 C25.0943158,20.8842105 26.4162807,22.0551579 28.0065965,22.0551579 C29.6081404,22.0551579 30.9369825,20.8676491 31.1602807,19.3270175 C32.746386,19.1059649 33.9713684,17.7413333 33.9713684,16.0954386 L33.9713684,3.39059649 C33.9713684,1.59101754 32.5073684,0.126877193 30.7077895,0.126877193 Z M30.1978947,2.23214035 L21.0592281,9.29164912 L11.9205614,2.23214035 L30.1978947,2.23214035 Z M14.1117193,19.9498947 C13.5152281,19.9498947 13.0298947,19.4645614 13.0298947,18.8679298 C13.0298947,18.2712982 13.5152281,17.7859649 14.1117193,17.7859649 C14.7083509,17.7859649 15.1936842,18.2712982 15.1936842,18.8679298 C15.1936842,19.4645614 14.7083509,19.9498947 14.1117193,19.9498947 Z M28.0065965,19.9498947 C27.4101053,19.9498947 26.9247719,19.4645614 26.9247719,18.8679298 C26.9247719,18.2712982 27.4101053,17.7859649 28.0065965,17.7859649 C28.6032281,17.7859649 29.0885614,18.2712982 29.0885614,18.8679298 C29.0885614,19.4645614 28.6032281,19.9498947 28.0065965,19.9498947 Z M30.752,17.2515088 C30.1969123,16.3122807 29.1744561,15.6805614 28.0065965,15.6805614 C26.8378947,15.6805614 25.8147368,16.3132632 25.2599298,17.2537544 L16.8582456,17.2537544 C16.3034386,16.3132632 15.2802807,15.6805614 14.1115789,15.6805614 C12.9438596,15.6805614 11.9214035,16.3122807 11.3663158,17.2515088 C10.7480702,17.2280702 10.2520702,16.7191579 10.2520702,16.0952982 L10.2520702,10.1604211 L11.9771228,10.1604211 C12.5584561,10.1604211 13.0297544,9.68926316 13.0297544,9.10778947 C13.0297544,8.52631579 12.5584561,8.05515789 11.9771228,8.05515789 L10.2520702,8.05515789 L10.2520702,3.60364912 L20.4157193,11.4548772 C20.605193,11.6012632 20.8322807,11.674386 21.0592281,11.674386 C21.2861754,11.674386 21.5132632,11.6012632 21.7027368,11.4548772 L31.8662456,3.60364912 L31.8662456,16.0952982 C31.8662456,16.7191579 31.3702456,17.2280702 30.752,17.2515088 Z" id="Shape"></path>
            </g>
        </g>
    </g>
</svg>