<?xml version="1.0" encoding="UTF-8"?>
<svg width="32px" height="32px" viewBox="0 0 32 32" version="1.1" xmlns="http://www.w3.org/2000/svg" xmlns:xlink="http://www.w3.org/1999/xlink">
    <!-- Generator: Sketch 61.1 (89650) - https://sketch.com -->
    <title>Covius</title>
    <desc>Created with Sketch.</desc>
    <g id="Covius" stroke="none" stroke-width="1" fill="none" fill-rule="evenodd">
        <g id="1-copy-48" transform="translate(-19.000000, -149.000000)">
            <g id="Covius" transform="translate(19.000000, 149.000000)">
                <g transform="translate(4.000000, 9.000000)" fill="#FFFFFF" fill-rule="nonzero" id="Shape">
                    <path d="M20.7904241,0 L7.72548606,0 C6.50709782,0 5.51581518,1.00154251 5.51581518,2.23254117 L5.51581518,3.49090176 L1.9482619,3.49090176 C1.55467556,3.49090176 1.23558745,3.81319645 1.23558745,4.21095245 C1.23558745,4.60870845 1.55467556,4.93100314 1.9482619,4.93100314 L5.51581518,4.93100314 L5.51581518,5.4233258 L0.71267445,5.4233258 C0.319088107,5.4233258 0,5.74562049 0,6.14337649 C0,6.5411325 0.319088107,6.86342719 0.71267445,6.86342719 L5.51581518,6.86342719 L5.51581518,7.48497494 L1.9482619,7.48497494 C1.55467556,7.48497494 1.23558745,7.80726963 1.23558745,8.20502563 C1.23558745,8.60278164 1.55467556,8.92507633 1.9482619,8.92507633 L5.51581518,8.92507633 L5.51581518,10.923265 C5.51581518,12.0492323 6.34527321,12.98261 7.41903605,13.1338206 C7.57021806,14.1876868 8.46989828,15 9.5542087,15 C10.6310123,15 11.5259413,14.1990156 11.6863406,13.1558062 L16.8294746,13.1558062 C16.9898738,14.1990156 17.8848979,15 18.9616065,15 C20.0459169,15 20.9455971,14.1876868 21.0967791,13.1338206 C22.170637,12.98261 23,12.0491363 23,10.923265 L23,2.23254117 C23,1.00154251 22.0088124,0 20.7904241,0 Z M20.4452046,1.44010138 L14.2579551,6.26914535 L8.07070557,1.44010138 L20.4452046,1.44010138 Z M9.5542087,13.5598986 C9.15035985,13.5598986 8.82176942,13.2279072 8.82176942,12.8197825 C8.82176942,12.4116578 9.15035985,12.0796664 9.5542087,12.0796664 C9.95815258,12.0796664 10.286743,12.4116578 10.286743,12.8197825 C10.286743,13.2279072 9.95815258,13.5598986 9.5542087,13.5598986 Z M18.9616065,13.5598986 C18.5577576,13.5598986 18.2291672,13.2279072 18.2291672,12.8197825 C18.2291672,12.4116578 18.5577576,12.0796664 18.9616065,12.0796664 C19.3655503,12.0796664 19.6941408,12.4116578 19.6941408,12.8197825 C19.6941408,13.2279072 19.3655503,13.5598986 18.9616065,13.5598986 Z M20.8203565,11.7140727 C20.4445395,11.0715954 19.752295,10.639469 18.9616065,10.639469 C18.1703478,10.639469 17.4776282,11.0722675 17.1020013,11.7156088 L11.4137189,11.7156088 C11.0380919,11.0722675 10.3453724,10.639469 9.55411368,10.639469 C8.76352016,10.639469 8.07127571,11.0715954 7.69545871,11.7140727 C7.27688125,11.6980395 6.94106905,11.349919 6.94106905,10.923169 L6.94106905,6.86342719 L8.10899994,6.86342719 C8.50258629,6.86342719 8.82167439,6.5411325 8.82167439,6.14337649 C8.82167439,5.74562049 8.50258629,5.4233258 8.10899994,5.4233258 L6.94106905,5.4233258 L6.94106905,2.37827943 L13.8222735,7.74889752 C13.9505549,7.84903257 14.1043025,7.89905209 14.2579551,7.89905209 C14.4116077,7.89905209 14.5653553,7.84903257 14.6936367,7.74889752 L21.5747461,2.37827943 L21.5747461,10.923169 C21.5747461,11.349919 21.2389339,11.6980395 20.8203565,11.7140727 Z"></path>
                </g>
                <rect id="Rectangle" stroke="#FFFFFF" stroke-width="2" x="1" y="1" width="30" height="30" rx="2"></rect>
            </g>
        </g>
    </g>
</svg>
