<svg width="18" height="19" viewBox="0 0 18 19" fill="none" xmlns="http://www.w3.org/2000/svg">
<path d="M9 0.398438C10.78 0.398437 12.5201 0.926278 14.0001 1.91521C15.4802 2.90414 16.6337 4.30975 17.3149 5.95429C17.9961 7.59882 18.1743 9.40842 17.8271 11.1542C17.4798 12.9001 16.6226 14.5037 15.364 15.7624C14.1053 17.0211 12.5016 17.8782 10.7558 18.2255C9.00998 18.5728 7.20038 18.3945 5.55585 17.7134C3.91131 17.0322 2.50571 15.8786 1.51677 14.3986C0.527841 12.9185 0 11.1785 0 9.39844C0 7.01149 0.948211 4.7223 2.63604 3.03448C4.32387 1.34665 6.61305 0.398438 9 0.398438V0.398438Z" fill="#596FEB"/>
<path d="M4.44141 9.5984L6.95414 12.1088L12.6074 6.45551" stroke="white" stroke-width="2"/>
</svg>
