<svg xmlns="http://www.w3.org/2000/svg" viewBox="-20314 9886 38 38"><defs><style>.a{fill:#fff;}.b{fill:none;stroke:#aeaeae;stroke-width:2px;}.c,.d{stroke:none;}.d{fill:#aeaeae;}</style></defs><g transform="translate(-2595)"><g class="a" transform="translate(-17719 9886)"><path class="c" d="M 19 37 C 14.19202995300293 37 9.671830177307129 35.12767028808594 6.272079944610596 31.72792053222656 C 2.872329950332642 28.32817077636719 1 23.80797004699707 1 19 C 1 14.19202995300293 2.872329950332642 9.671830177307129 6.272079944610596 6.272079944610596 C 9.671830177307129 2.872329950332642 14.19202995300293 1 19 1 C 23.80797004699707 1 28.32817077636719 2.872329950332642 31.72792053222656 6.272079944610596 C 35.12767028808594 9.671830177307129 37 14.19202995300293 37 19 C 37 23.80797004699707 35.12767028808594 28.32817077636719 31.72792053222656 31.72792053222656 C 28.32817077636719 35.12767028808594 23.80797004699707 37 19 37 Z"/><path class="d" d="M 19 36 C 23.54085922241211 36 27.80994033813477 34.231689453125 31.02082061767578 31.02082061767578 C 34.231689453125 27.80994033813477 36 23.54085922241211 36 19 C 36 14.45913982391357 34.231689453125 10.19005966186523 31.02082061767578 6.979179859161377 C 27.80994033813477 3.768310070037842 23.54085922241211 2 19 2 C 14.45913982391357 2 10.19005966186523 3.768310070037842 6.979179859161377 6.979179859161377 C 3.768310070037842 10.19005966186523 2 14.45913982391357 2 19 C 2 23.54085922241211 3.768310070037842 27.80994033813477 6.979179859161377 31.02082061767578 C 10.19005966186523 34.231689453125 14.45913982391357 36 19 36 M 19 38 C 8.506589889526367 38 0 29.49341011047363 0 19 C 0 8.506589889526367 8.506589889526367 0 19 0 C 29.49341011047363 0 38 8.506589889526367 38 19 C 38 29.49341011047363 29.49341011047363 38 19 38 Z"/></g><path class="b" d="M7095.8,10302.834l4.748,4.748,10.691-10.691" transform="translate(-24803.557 -397.257)"/></g></svg>