<svg width="30" height="29" viewBox="0 0 30 29" fill="none" xmlns="http://www.w3.org/2000/svg">
<path d="M15 28.6172C22.732 28.6172 29 22.3492 29 14.6172C29 6.8852 22.732 0.617188 15 0.617188C7.26801 0.617188 1 6.8852 1 14.6172C1 22.3492 7.26801 28.6172 15 28.6172Z" fill="white"/>
<path d="M14.9839 27.8646C22.3089 27.8646 28.247 21.9265 28.247 14.6014C28.247 7.27637 22.3089 1.33825 14.9839 1.33825C7.65882 1.33825 1.7207 7.27637 1.7207 14.6014C1.7207 21.9265 7.65882 27.8646 14.9839 27.8646Z" stroke="#596FEB" stroke-width="2"/>
<path d="M9.28906 15.0428L12.7876 18.5414L20.6651 10.6635" stroke="#596FEB" stroke-width="2"/>
</svg>
