<svg xmlns="http://www.w3.org/2000/svg" viewBox="-19799.111 9893.889 22.289 22.289"><defs><style>.a{fill:#fff;}.b{fill:none;stroke:#5d5d5d;}.c,.d{stroke:none;}.d{fill:#5d5d5d;}</style></defs><g transform="translate(-20343 9587)"><g class="a" transform="translate(543.889 306.889)"><path class="c" d="M 11.14435577392578 21.78871536254883 C 5.275035858154297 21.78871536254883 0.4999957680702209 17.01367568969727 0.4999957680702209 11.14435577392578 C 0.4999957680702209 5.275035858154297 5.275035858154297 0.4999957680702209 11.14435577392578 0.4999957680702209 C 17.01367568969727 0.4999957680702209 21.78871536254883 5.275035858154297 21.78871536254883 11.14435577392578 C 21.78871536254883 17.01367568969727 17.01367568969727 21.78871536254883 11.14435577392578 21.78871536254883 Z"/><path class="d" d="M 11.14435577392578 21.28871536254883 C 16.73797607421875 21.28871536254883 21.28871536254883 16.73797607421875 21.28871536254883 11.14435577392578 C 21.28871536254883 5.550735950469971 16.73797607421875 0.9999957680702209 11.14435577392578 0.9999957680702209 C 5.550735950469971 0.9999957680702209 0.9999957680702209 5.550735950469971 0.9999957680702209 11.14435577392578 C 0.9999957680702209 16.73797607421875 5.550735950469971 21.28871536254883 11.14435577392578 21.28871536254883 M 11.14435577392578 22.28871536254883 C 4.989495754241943 22.28871536254883 -4.226073997415369e-06 17.29921531677246 -4.226073997415369e-06 11.14435577392578 C -4.226073997415369e-06 4.989495754241943 4.989495754241943 -4.226073997415369e-06 11.14435577392578 -4.226073997415369e-06 C 17.29921531677246 -4.226073997415369e-06 22.28871536254883 4.989495754241943 22.28871536254883 11.14435577392578 C 22.28871536254883 17.29921531677246 17.29921531677246 22.28871536254883 11.14435577392578 22.28871536254883 Z"/></g><path class="b" d="M7095.8,10300.795l3.12,3.117,7.022-7.024" transform="translate(-6546.317 -9982.756)"/></g></svg>