<svg width="10" height="11" viewBox="0 0 10 11" fill="none" xmlns="http://www.w3.org/2000/svg">
<path d="M9.56594 0.375H0.42593C0.26593 0.375 0.115926 0.465011 0.0459256 0.605011C-0.0240744 0.745011 -0.0140451 0.915013 0.0759549 1.04501L3.42593 5.64499C3.54593 5.80499 3.61593 6.00502 3.61593 6.20502V9.95502C3.61593 10.065 3.65593 10.175 3.73593 10.255C3.81593 10.335 3.92592 10.375 4.03592 10.375C4.09592 10.375 4.15596 10.365 4.20596 10.345L6.08596 9.64499C6.25596 9.59499 6.36593 9.43501 6.36593 9.255V6.20502C6.36593 6.00502 6.43594 5.815 6.55594 5.655L9.90591 1.04501C10.0059 0.915013 10.0159 0.745011 9.93594 0.605011C9.86594 0.465011 9.71593 0.375 9.55593 0.375H9.56594Z" fill="#4E586E"/>
</svg>
