<?xml version="1.0" encoding="UTF-8"?>
<svg width="32px" height="32px" viewBox="0 0 32 32" version="1.1" xmlns="http://www.w3.org/2000/svg" xmlns:xlink="http://www.w3.org/1999/xlink">
    <!-- Generator: Sketch 61.1 (89650) - https://sketch.com -->
    <title>Freddie</title>
    <desc>Created with Sketch.</desc>
    <g id="Covius" stroke="none" stroke-width="1" fill="none" fill-rule="evenodd">
        <g id="1-copy-46" transform="translate(-19.000000, -221.000000)" fill="#FFFFFF">
            <path d="M51,248 C51,250.761424 48.7614237,253 46,253 L24,253 C21.2385763,253 19,250.761424 19,248 L19,226 C19,223.238576 21.2385763,221 24,221 L46,221 C48.7614237,221 51,223.238576 51,226 L51,248 Z M34.9034095,235.106892 L21,244.107 L21,248 C21,249.597681 22.24892,250.903661 23.8237272,250.994907 L24,251 L46,251 C47.5976809,251 48.9036609,249.75108 48.9949073,248.176273 L49,248 L49,244.123 L34.9034095,235.106892 Z M46,223 L24,223 C22.4023191,223 21.0963391,224.24892 21.0050927,225.823727 L21,226 L21,238.972 L34.9034095,230 L49,238.988 L49,226 C49,224.343146 47.6568542,223 46,223 Z M46.4904821,230 L46.4904821,235.692111 L42.2311895,233.239173 L42.2311895,230 L46.4904821,230 Z" id="Freddie"></path>
        </g>
    </g>
</svg>