<svg xmlns="http://www.w3.org/2000/svg" viewBox="0 0 36.524 29.575">
  <defs>
    <style>
      .cls-1 {
        fill: #fff;
      }
    </style>
  </defs>
  <g id="Loan_Activity" data-name="Loan Activity" transform="translate(-18.475 -203.424)">
    <path id="Path_426" data-name="Path 426" class="cls-1" d="M30.493,3H3.949A2.958,2.958,0,0,0,1,5.949V26.595a2.958,2.958,0,0,0,2.949,2.949H22.811l8,2.176,4.5-3.564,1.3-5.333-3.17-6.255V5.949A2.958,2.958,0,0,0,30.493,3Zm1,13.595,4.671,3.73v5.788l-3.355,4.3-7.125.918L21.61,27.595H2.949V4.949H31.493ZM5.9,11.323H19.171v1.949H5.9ZM5.9,7.9H19.171V9.848H5.9Z" transform="translate(17.475 200.424)"/>
    <path id="Subtraction_2" data-name="Subtraction 2" class="cls-1" d="M4606.2-11321a8.97,8.97,0,0,1-6.094-2.382,8.971,8.971,0,0,1-2.873-5.828l2.025.121a7.015,7.015,0,0,0,6.941,6.091,7.009,7.009,0,0,0,7-7,7.009,7.009,0,0,0-7-7,7,7,0,0,0-5.294,2.427l-1.731-1.047a8.966,8.966,0,0,1,7.025-3.38,9.01,9.01,0,0,1,9,9A9.008,9.008,0,0,1,4606.2-11321Z" transform="translate(-4560.2 11554)"/>
    <path id="Path_428" data-name="Path 428" class="cls-1" d="M0,0,5.421,5.421H0Z" transform="translate(38.29 215.289)"/>
    <rect id="Rectangle_788" data-name="Rectangle 788" class="cls-1" width="1.5" height="5" transform="translate(45 220)"/>
    <rect id="Rectangle_789" data-name="Rectangle 789" class="cls-1" width="1.5" height="4" transform="translate(49 224) rotate(90)"/>
  </g>
</svg>
