<?xml version="1.0" encoding="UTF-8"?>
<svg width="115px" height="84px" viewBox="0 0 115 84" version="1.1" xmlns="http://www.w3.org/2000/svg" xmlns:xlink="http://www.w3.org/1999/xlink">
    <!-- Generator: Sketch 61.1 (89650) - https://sketch.com -->
    <title>cloud-computing</title>
    <desc>Created with Sketch.</desc>
    <g id="Covius" stroke="none" stroke-width="1" fill="none" fill-rule="evenodd">
        <g id="1-copy-51" transform="translate(-1113.000000, -340.000000)" fill-rule="nonzero">
            <g id="cloud-computing" transform="translate(1113.000000, 340.000000)">
                <path d="M63.4008775,81.6472669 L63.4008775,54.0967331 L72.3433539,62.2214575 C73.1038349,62.9141673 74.1022099,63.2596364 75.100585,63.2596364 C76.09896,63.2596364 77.0973351,62.9141673 77.8578161,62.2214575 C79.380728,60.8378095 79.380728,58.5949178 77.8578161,57.2112698 L62.260156,43.0399505 C62.0788105,42.8751884 61.8779656,42.7263709 61.6634709,42.5970415 C61.5659734,42.5368058 61.458726,42.4960582 61.3553786,42.4446807 C61.2344816,42.3844451 61.1194345,42.3188945 60.9926877,42.2710604 C60.8620409,42.2214545 60.7255444,42.1931084 60.5909977,42.1576756 C60.4818005,42.1275578 60.3765031,42.0903535 60.2634059,42.0690938 C59.7583685,41.9769687 59.2396815,41.9769687 58.7346441,42.0690938 C58.621547,42.0885818 58.5162496,42.1275578 58.4070523,42.1576756 C58.2725057,42.1931084 58.1379591,42.2214545 58.0073123,42.2710604 C57.8786155,42.3188945 57.7635684,42.3862167 57.6426714,42.4464524 C57.541274,42.4978298 57.4340266,42.5385775 57.3365291,42.5970415 C57.1220344,42.7263709 56.9211895,42.8751884 56.739844,43.0399505 L41.1421839,57.2112698 C39.619272,58.5949178 39.619272,60.8378095 41.1421839,62.2214575 C41.9046149,62.9141673 42.9029899,63.2596364 43.901365,63.2596364 C44.89974,63.2596364 45.898115,62.9141673 46.658596,62.2214575 L55.6010725,54.0967331 L55.6010725,81.6472669 C56.0205792,83.2157556 57.3202217,84 59.5,84 C61.6797783,84 62.9800708,83.2157556 63.4008775,81.6472669 Z" id="Path" fill="#EB8F33"></path>
                <path d="M98.2325893,32.4160556 C97.95125,32.3775278 93.1869643,31.73675 88.6136607,32.4201111 C88.5089286,32.4363333 88.4041964,32.4444444 88.3015179,32.4444444 C87.3034821,32.4444444 86.4286607,31.7266111 86.2746429,30.7208333 C86.1041964,29.6136667 86.8742857,28.5795 87.9955357,28.4111944 C91.1395536,27.9387222 94.2835714,28.01375 96.3802679,28.15975 C95.0023214,12.4404167 81.79375,0 65.8888393,0 C56.2432143,0 46.5483036,4.82408333 40.6607143,12.42825 C44.6733929,15.7781389 47.2321429,20.7766111 47.2321429,26.3611111 C47.2321429,27.4824722 46.3141964,28.3888889 45.1785714,28.3888889 C44.0429464,28.3888889 43.125,27.4824722 43.125,26.3611111 C43.125,21.3687222 40.494375,16.9785833 36.5350893,14.4458889 C36.0689286,14.1478056 35.5863393,13.8841944 35.0934821,13.6428889 C34.9517857,13.5739444 34.8080357,13.5029722 34.6622321,13.4380833 C34.1036607,13.1866389 33.5327679,12.9635833 32.9475,12.7871667 C32.875625,12.7668889 32.8016964,12.7526944 32.7298214,12.7324167 C32.1979464,12.5803333 31.6578571,12.46475 31.1095536,12.3735 C30.949375,12.3471389 30.79125,12.3228056 30.6310714,12.3005 C30.0108929,12.2214167 29.3845536,12.1666667 28.75,12.1666667 C20.8252679,12.1666667 14.375,18.5359167 14.375,26.3611111 C14.375,26.5273889 14.3873214,26.6916389 14.3996429,26.8558889 L14.4242857,27.2817222 L14.4058036,27.6061667 C14.3914286,27.8697778 14.375,28.1313611 14.375,28.3888889 L14.375,29.6663889 L13.210625,30.2159167 C5.55491071,33.8395556 0,42.5833333 0,51.0067222 C0,63.1348611 9.990625,73 22.2709821,73 L51.3988393,73 L51.3988393,64.1933611 L48.9941071,66.5678889 C47.3902679,68.1515833 45.2874107,68.9444444 43.1845536,68.9444444 C41.0816964,68.9444444 38.9808929,68.1515833 37.375,66.5678889 C34.1673214,63.4005 34.1673214,58.2641389 37.375,55.0987778 L53.8035714,38.8765556 L53.8035714,38.8765556 C54.1855357,38.4993889 54.6065179,38.1627778 55.05625,37.8646944 C55.2575,37.7328889 55.4772321,37.6396111 55.6866964,37.5260556 C55.9454464,37.3861389 56.1959821,37.23 56.4711607,37.1184722 C56.7422321,37.0069444 57.025625,36.9440833 57.3049107,36.8629722 C57.5390179,36.7960556 57.7628571,36.7068333 58.003125,36.6581667 C59.0648214,36.4493056 60.159375,36.4493056 61.2210714,36.6581667 C61.4633929,36.7048056 61.6872321,36.7940278 61.9192857,36.8629722 C62.1985714,36.9440833 62.4819643,37.0069444 62.7530357,37.1184722 C63.0282143,37.2320278 63.27875,37.3861389 63.5375,37.5260556 C63.7469643,37.6396111 63.9666964,37.7308611 64.1679464,37.8646944 C64.6176786,38.16075 65.0386607,38.4993889 65.420625,38.8765556 L65.420625,38.8765556 L81.8491964,55.0987778 C85.056875,58.2661667 85.056875,63.4025278 81.8491964,66.5678889 C80.2453571,68.1515833 78.1425,68.9444444 76.0396429,68.9444444 C73.9367857,68.9444444 71.8359821,68.1515833 70.2300893,66.5678889 L67.8253571,64.1933611 L67.8253571,73 L72.5978571,73 C72.7190179,73 72.8360714,72.9898611 72.9551786,72.98175 L73.3617857,72.9594444 L73.9183036,72.98175 C74.0374107,72.9898611 74.1544643,73 74.275625,73 L94.4067857,73 C105.760982,73 115,63.8770278 115,52.6654444 C115,42.9098056 107.791964,34.2126667 98.2325893,32.4160556 Z" id="Path" fill="#99E1ED"></path>
            </g>
        </g>
    </g>
</svg>