<svg width="34" height="29" viewBox="0 0 34 29" fill="none" xmlns="http://www.w3.org/2000/svg">
<rect x="1.92188" y="1.65625" width="26.1573" height="26" rx="1" stroke="white" stroke-width="2"/>
<path d="M14.948 12.86L12.659 20H11.462C11.322 20 11.224 19.909 11.168 19.727L9.747 15.282C9.70967 15.156 9.67467 15.03 9.642 14.904C9.614 14.778 9.58833 14.6543 9.565 14.533C9.51367 14.785 9.45067 15.037 9.376 15.289L7.934 19.727C7.88267 19.909 7.773 20 7.605 20H6.464L4.175 12.86H5.365C5.48167 12.86 5.57733 12.8903 5.652 12.951C5.73133 13.007 5.78267 13.0747 5.806 13.154L6.996 17.312C7.04267 17.5033 7.08233 17.69 7.115 17.872C7.15233 18.0493 7.185 18.2267 7.213 18.404C7.25967 18.2267 7.30867 18.0493 7.36 17.872C7.41133 17.69 7.465 17.5033 7.521 17.312L8.858 13.133C8.88133 13.049 8.928 12.9813 8.998 12.93C9.07267 12.874 9.16133 12.846 9.264 12.846H9.922C10.0293 12.846 10.1203 12.874 10.195 12.93C10.2697 12.9813 10.3187 13.049 10.342 13.133L11.644 17.312C11.7 17.5033 11.7513 17.69 11.798 17.872C11.8493 18.054 11.896 18.236 11.938 18.418C11.9707 18.2407 12.0057 18.061 12.043 17.879C12.0803 17.697 12.1247 17.508 12.176 17.312L13.387 13.154C13.415 13.07 13.4663 13 13.541 12.944C13.6157 12.888 13.7067 12.86 13.814 12.86H14.948ZM26.0769 12.86L23.7879 20H22.5909C22.4509 20 22.3529 19.909 22.2969 19.727L20.8759 15.282C20.8386 15.156 20.8036 15.03 20.7709 14.904C20.7429 14.778 20.7172 14.6543 20.6939 14.533C20.6426 14.785 20.5796 15.037 20.5049 15.289L19.0629 19.727C19.0116 19.909 18.9019 20 18.7339 20H17.5929L15.3039 12.86H16.4939C16.6106 12.86 16.7062 12.8903 16.7809 12.951C16.8602 13.007 16.9116 13.0747 16.9349 13.154L18.1249 17.312C18.1716 17.5033 18.2112 17.69 18.2439 17.872C18.2812 18.0493 18.3139 18.2267 18.3419 18.404C18.3886 18.2267 18.4376 18.0493 18.4889 17.872C18.5402 17.69 18.5939 17.5033 18.6499 17.312L19.9869 13.133C20.0102 13.049 20.0569 12.9813 20.1269 12.93C20.2016 12.874 20.2902 12.846 20.3929 12.846H21.0509C21.1582 12.846 21.2492 12.874 21.3239 12.93C21.3986 12.9813 21.4476 13.049 21.4709 13.133L22.7729 17.312C22.8289 17.5033 22.8802 17.69 22.9269 17.872C22.9782 18.054 23.0249 18.236 23.0669 18.418C23.0996 18.2407 23.1346 18.061 23.1719 17.879C23.2092 17.697 23.2536 17.508 23.3049 17.312L24.5159 13.154C24.5439 13.07 24.5952 13 24.6699 12.944C24.7446 12.888 24.8356 12.86 24.9429 12.86H26.0769Z" fill="white"/>
</svg>
